# Blender v2.78 (sub 0) OBJ File: 'BSP Scene.blend'
# www.blender.org
mtllib BSP Scene.mtl
o Cube.001
v -5.000000 -1.000001 5.000000
v -5.000000 0.999999 5.000000
v -5.000000 1.000000 3.000000
v -5.000000 -1.000000 3.000000
v -3.000000 1.000000 3.000000
v -3.000000 -1.000000 3.000000
v -3.000000 0.999999 5.000000
v -3.000000 -1.000001 5.000000
vn -1.0000 -0.0000 0.0000
vn 0.0000 0.0000 -1.0000
vn 1.0000 -0.0000 0.0000
vn 0.0000 0.0000 1.0000
vn 0.0000 -1.0000 -0.0000
vn 0.0000 1.0000 0.0000
usemtl None
s 1
f 1//1 2//1 3//1 4//1
f 4//2 3//2 5//2 6//2
f 6//3 5//3 7//3 8//3
f 8//4 7//4 2//4 1//4
f 4//5 6//5 8//5 1//5
f 5//6 3//6 2//6 7//6
o CuboMovible_Cube
v -4.000000 -1.000000 -3.000000
v -4.000000 1.000000 -3.000000
v -4.000000 1.000001 -5.000000
v -4.000000 -0.999999 -5.000000
v -2.000000 1.000001 -5.000000
v -2.000000 -0.999999 -5.000000
v -2.000000 1.000000 -3.000000
v -2.000000 -1.000000 -3.000000
vn -1.0000 0.0000 0.0000
vn 0.0000 0.0000 -1.0000
vn 1.0000 0.0000 0.0000
vn 0.0000 -0.0000 1.0000
vn 0.0000 -1.0000 -0.0000
vn 0.0000 1.0000 0.0000
usemtl None
s 1
f 9//7 10//7 11//7 12//7
f 12//8 11//8 13//8 14//8
f 14//9 13//9 15//9 16//9
f 16//10 15//10 10//10 9//10
f 12//11 14//11 16//11 9//11
f 13//12 11//12 10//12 15//12
o BSP_Plane.001_Plane.001
v 8.000253 4.054430 3.764167
v 8.000253 -3.801582 3.764165
v 8.000253 -3.801580 -4.091846
v 8.000253 4.054431 -4.091846
vn 1.0000 -0.0000 0.0000
usemtl None
s 1
f 17//13 18//13 19//13 20//13
o BSP_Plane_Plane.001
v -7.999748 3.836406 3.546142
v -7.999747 -3.583556 3.546140
v -7.999747 -3.583555 -3.873822
v -7.999748 3.836408 -3.873821
vn 1.0000 0.0000 0.0000
usemtl None
s 1
f 21//14 22//14 23//14 24//14
o Cube.002
v -21.000000 -1.000000 1.000000
v -21.000000 1.000000 1.000000
v -21.000000 1.000000 -1.000000
v -21.000000 -1.000000 -1.000000
v -19.000000 1.000000 -1.000000
v -19.000000 -1.000000 -1.000000
v -19.000000 1.000000 1.000000
v -19.000000 -1.000000 1.000000
vn -1.0000 0.0000 0.0000
vn 0.0000 0.0000 -1.0000
vn 1.0000 -0.0000 0.0000
vn 0.0000 -0.0000 1.0000
vn 0.0000 -1.0000 -0.0000
vn 0.0000 1.0000 0.0000
usemtl None
s 1
f 25//15 26//15 27//15 28//15
f 28//16 27//16 29//16 30//16
f 30//17 29//17 31//17 32//17
f 32//18 31//18 26//18 25//18
f 28//19 30//19 32//19 25//19
f 29//20 27//20 26//20 31//20
o BSP_Plane.002_Plane.001_BPS_Plane.002_Plane.001
v -3.976702 4.103380 -8.163839
v -3.976701 -3.850528 -8.163841
v 3.977207 -3.850528 -8.163841
v 3.977207 4.103382 -8.163839
vn -0.0000 -0.0000 1.0000
usemtl None
s 1
f 33//21 34//21 35//21 36//21
o Cube.003
v 11.000000 -1.000000 1.000000
v 11.000000 1.000000 1.000000
v 11.000000 1.000000 -1.000000
v 11.000000 -1.000000 -1.000000
v 13.000000 1.000000 -1.000000
v 13.000000 -1.000000 -1.000000
v 13.000000 1.000000 1.000000
v 13.000000 -1.000000 1.000000
vn -1.0000 -0.0000 0.0000
vn 0.0000 0.0000 -1.0000
vn 1.0000 0.0000 0.0000
vn 0.0000 -0.0000 1.0000
vn 0.0000 -1.0000 -0.0000
vn 0.0000 1.0000 0.0000
usemtl None
s 1
f 37//22 38//22 39//22 40//22
f 40//23 39//23 41//23 42//23
f 42//24 41//24 43//24 44//24
f 44//25 43//25 38//25 37//25
f 40//26 42//26 44//26 37//26
f 41//27 39//27 38//27 43//27
o Cube.004_Cube.001
v 3.000000 -1.000000 1.000000
v 3.000000 1.000000 1.000000
v 3.000000 1.000000 -1.000000
v 3.000000 -1.000000 -1.000000
v 5.000000 1.000000 -1.000000
v 5.000000 -1.000000 -1.000000
v 5.000000 1.000000 1.000000
v 5.000000 -1.000000 1.000000
vn -1.0000 -0.0000 0.0000
vn 0.0000 0.0000 -1.0000
vn 1.0000 -0.0000 0.0000
vn 0.0000 -0.0000 1.0000
vn 0.0000 -1.0000 -0.0000
vn 0.0000 1.0000 0.0000
usemtl None
s 1
f 45//28 46//28 47//28 48//28
f 48//29 47//29 49//29 50//29
f 50//30 49//30 51//30 52//30
f 52//31 51//31 46//31 45//31
f 48//32 50//32 52//32 45//32
f 49//33 47//33 46//33 51//33
